# xmcd CD database file
#
# Track frame offsets:
#	150
#	16725
#	39675
#
# Disc length: 748 seconds
#
# Revision: 0
# Processed by: cddbd v1.5.1PL0 Copyright (c) Steve Scherf et al.
# Submitted via: CDex 1.51
#
DISCID=1902ea03
DTITLE=小野正利 - ピュアになれ
DYEAR=1992
DGENRE=JPop
TTITLE0=ピュアになれ
TTITLE1=朝は窓にこぼれて
TTITLE2=ピュアになれ (karaoke)
EXTD=YEAR: 1992
EXTT0=
EXTT1=
EXTT2=
PLAYORDER=
